<svg version="1.1" xmlns="http://www.w3.org/2000/svg" xmlns:xlink="http://www.w3.org/1999/xlink" width="109.66633" height="101.30874" viewBox="0,0,109.66633,101.30874"><g transform="translate(-185.16683,-129.34563)"><g data-paper-data="{&quot;isPaintingLayer&quot;:true}" fill-rule="nonzero" stroke="#4fafff" stroke-width="4.5" stroke-linecap="butt" stroke-linejoin="miter" stroke-miterlimit="10" stroke-dasharray="" stroke-dashoffset="0" style="mix-blend-mode: normal"><path d="M187.41683,221.59192c0,-18.02123 0,-66.4046 0,-78.70063c0,-5.52309 6.19832,-11.29565 12.14657,-11.29565c12.67453,0 60.97979,0 82.53119,0c6.43802,0 10.48857,4.18057 10.48857,8.50979c0,11.65503 0,65.50571 0,82.87943c0,3.41403 -1.99273,5.41952 -5.96154,5.41952c-20.13322,0 -82.50555,0 -93.32641,0c-3.15198,0 -5.87838,-2.56153 -5.87838,-6.81246z" fill="#ffffff"/><path d="M212.59771,182.65709c0,-14.96448 12.31217,-27.09559 27.5,-27.09559c15.18783,0 27.5,12.13111 27.5,27.09559c0,14.96448 -12.31217,27.09559 -27.5,27.09559c-15.18783,0 -27.5,-12.13111 -27.5,-27.09559z" fill="#ffffff"/><path d="M232.36563,177.34341c0,5.26734 -1.52501,9.53737 -3.4062,9.53737c-1.88119,0 -3.4062,-4.27002 -3.4062,-9.53737c0,-5.26734 1.52501,-9.53737 3.4062,-9.53737c1.88119,0 3.4062,4.27002 3.4062,9.53737z" fill="#000000"/><path d="M256.20905,175.72547c0,5.03219 -1.75376,9.11159 -3.91713,9.11159c-2.16337,0 -3.91713,-4.0794 -3.91713,-9.11159c0,-5.03219 1.75376,-9.11159 3.91713,-9.11159c2.16337,0 3.91713,4.0794 3.91713,9.11159z" fill="#000000"/></g></g></svg>